<svg xmlns="http://www.w3.org/2000/svg" width="52" height="52" viewBox="0 0 52 52"><defs><pattern id="grid" width="16" height="16" patternUnits="userSpaceOnUse"><path d="M16 0H0V16" fill="none" stroke="#ffbd35" stroke-opacity=".045"/></pattern><pattern id="scan" width="4" height="4" patternUnits="userSpaceOnUse"><path d="M0 3.5H4" stroke="#000" stroke-opacity=".22"/></pattern><radialGradient id="light"><stop stop-color="#604317" stop-opacity=".15"/><stop offset="1" stop-color="#080c0e" stop-opacity="0"/></radialGradient></defs><rect width="52" height="52" fill="#080c0e"/><rect width="52" height="52" fill="url(#light)"/><rect width="52" height="52" fill="url(#grid)"/><rect width="52" height="52" fill="url(#scan)"/><path d="M1 12V1H12M40 1H51V12M1 40V51H12M40 51H51V40" fill="none" stroke="#7c5b21"/><svg x="10" y="10" width="32" height="32" xmlns="http://www.w3.org/2000/svg" xml:space="preserve" viewBox="0 0 128 128"><linearGradient id="a" x1="96.306" x2="25.454" y1="35.144" y2="98.431" gradientTransform="matrix(1 0 0 -1 0 128)" gradientUnits="userSpaceOnUse"><stop offset="0" stop-color="#a9c8ff"/><stop offset="1" stop-color="#c7e6ff"/></linearGradient><path fill="url(#a)" fill-rule="evenodd" d="M7.2 110.5c-1.7 0-3.1-.7-4.1-1.9-1-1.2-1.3-2.9-.9-4.6l18.6-80.5c.8-3.4 4-6 7.4-6h92.6c1.7 0 3.1.7 4.1 1.9 1 1.2 1.3 2.9.9 4.6l-18.6 80.5c-.8 3.4-4 6-7.4 6H7.2z" clip-rule="evenodd" opacity=".8"/><linearGradient id="b" x1="25.336" x2="94.569" y1="98.33" y2="36.847" gradientTransform="matrix(1 0 0 -1 0 128)" gradientUnits="userSpaceOnUse"><stop offset="0" stop-color="#2d4664"/><stop offset=".169" stop-color="#29405b"/><stop offset=".445" stop-color="#1e2f43"/><stop offset=".79" stop-color="#0c131b"/><stop offset="1"/></linearGradient><path fill="url(#b)" fill-rule="evenodd" d="M120.3 18.5H28.5c-2.9 0-5.7 2.3-6.4 5.2L3.7 104.3c-.7 2.9 1.1 5.2 4 5.2h91.8c2.9 0 5.7-2.3 6.4-5.2l18.4-80.5c.7-2.9-1.1-5.3-4-5.3z" clip-rule="evenodd"/><path fill="#2C5591" fill-rule="evenodd" d="M64.2 88.3h22.3c2.6 0 4.7 2.2 4.7 4.9s-2.1 4.9-4.7 4.9H64.2c-2.6 0-4.7-2.2-4.7-4.9s2.1-4.9 4.7-4.9zM78.7 66.5c-.4.8-1.2 1.6-2.6 2.6L34.6 98.9c-2.3 1.6-5.5 1-7.3-1.4-1.7-2.4-1.3-5.7.9-7.3l37.4-27.1v-.6l-23.5-25c-1.9-2-1.7-5.3.4-7.4 2.2-2 5.5-2 7.4 0l28.2 30c1.7 1.9 1.8 4.5.6 6.4z" clip-rule="evenodd"/><path fill="#FFF" fill-rule="evenodd" d="M77.6 65.5c-.4.8-1.2 1.6-2.6 2.6L33.6 97.9c-2.3 1.6-5.5 1-7.3-1.4-1.7-2.4-1.3-5.7.9-7.3l37.4-27.1v-.6l-23.5-25c-1.9-2-1.7-5.3.4-7.4 2.2-2 5.5-2 7.4 0l28.2 30c1.7 1.8 1.8 4.4.5 6.4zM63.5 87.8h22.3c2.6 0 4.7 2.1 4.7 4.6 0 2.6-2.1 4.6-4.7 4.6H63.5c-2.6 0-4.7-2.1-4.7-4.6 0-2.6 2.1-4.6 4.7-4.6z" clip-rule="evenodd"/></svg></svg>
